# xmcd CD database file generated by OrangeCD 6.3
#
# Track frame offsets:
#	150
#	17822
#	35919
#	40729
#	57238
#	73370
#	91145
#	108637
#	128719
#	151663
#	170245
#	188685
#
# Disc length: 2577 seconds
#
# Revision: 3
# Processed by: cddbd v1.5.2PL0 Copyright (c) Steve Scherf et al.
# Submitted via: OrangeCD 6.3
#
DISCID=a40a0f0c
DTITLE=Carmen Consoli - Confusa E Felice
DYEAR=1900
DGENRE=Rock
TTITLE0=Bonsai #1
TTITLE1=Uguale a Ieri
TTITLE2=Diversi
TTITLE3=Confusa e Felice
TTITLE4=Fidarmi delle Tue Carezze
TTITLE5=Sorso in Più
TTITLE6=Venere
TTITLE7=Per Niente Stanca
TTITLE8=Fino all'Ultimo
TTITLE9=Blunotte
TTITLE10=Bellezza delle Cose
TTITLE11=Bonsai #2
EXTD=
EXTT0=
EXTT1=
EXTT2=
EXTT3=
EXTT4=
EXTT5=
EXTT6=
EXTT7=
EXTT8=
EXTT9=
EXTT10=
EXTT11=
PLAYORDER=
